<svg width="55" height="55" viewBox="0 0 55 55" fill="none" xmlns="http://www.w3.org/2000/svg">
<g clip-path="url(#clip0_24_74)">
<path d="M43.5416 28.1463V32.0833C43.5416 36.3379 41.8515 40.4181 38.8431 43.4265C35.8347 46.4349 31.7545 48.125 27.4999 48.125C23.2454 48.125 19.1652 46.4349 16.1568 43.4265C13.1484 40.4181 11.4583 36.3379 11.4583 32.0833V28.1463L26.031 35.0373C26.4903 35.2544 26.992 35.367 27.4999 35.367C28.0079 35.367 28.5096 35.2544 28.9689 35.0373L43.5416 28.1463ZM28.9689 6.21502L49.7772 16.0554C51.4593 16.8483 51.6725 19.0392 50.4166 20.1873V29.7917C50.4166 30.3995 50.1752 30.9824 49.7454 31.4121C49.3156 31.8419 48.7327 32.0833 48.125 32.0833C47.5172 32.0833 46.9343 31.8419 46.5045 31.4121C46.0747 30.9824 45.8333 30.3995 45.8333 29.7917V22.4813L28.9689 30.4563C28.5096 30.6733 28.0079 30.7859 27.4999 30.7859C26.992 30.7859 26.4903 30.6733 26.031 30.4563L5.22265 20.6136C4.79147 20.4092 4.42715 20.0866 4.17204 19.6834C3.91692 19.2802 3.78149 18.8128 3.78149 18.3356C3.78149 17.8585 3.91692 17.3911 4.17204 16.9879C4.42715 16.5846 4.79147 16.2621 5.22265 16.0577L26.031 6.21731C26.4903 6.00023 26.992 5.88763 27.4999 5.88763C28.0079 5.88763 28.5096 6.00023 28.9689 6.21731V6.21502Z" fill="#5AA3E8"/>
</g>
<defs>
<clipPath id="clip0_24_74">
<rect width="55" height="55" fill="white"/>
</clipPath>
</defs>
</svg>
