<svg width="20" height="21" viewBox="0 0 20 21" fill="none" xmlns="http://www.w3.org/2000/svg">
<path d="M10 0.105957C7.6255 0.106058 5.32849 0.972446 3.51999 2.5501C1.71149 4.12775 0.509528 6.31371 0.12916 8.71686C-0.251207 11.12 0.214845 13.5835 1.44393 15.6666C2.67301 17.7496 4.58491 19.3163 6.83755 20.0863C7.33755 20.1761 7.52505 19.8685 7.52505 19.5993C7.52505 19.3558 7.51254 18.5484 7.51254 17.6897C5.00003 18.1639 4.35003 17.0618 4.15003 16.485C3.9281 15.9241 3.5763 15.427 3.12503 15.0368C2.77503 14.8445 2.27503 14.3703 3.11252 14.3575C3.4323 14.3931 3.73901 14.5072 4.00666 14.6901C4.2743 14.8731 4.49499 15.1195 4.65003 15.4084C4.7868 15.6603 4.97071 15.8821 5.19122 16.061C5.41173 16.2399 5.6645 16.3725 5.93506 16.4511C6.20562 16.5296 6.48864 16.5527 6.76791 16.5189C7.04717 16.4852 7.3172 16.3952 7.56251 16.2543C7.6058 15.7331 7.83237 15.2457 8.20003 14.883C5.97503 14.6267 3.65003 13.7423 3.65003 9.82063C3.63597 8.80164 4.00271 7.81575 4.67503 7.06516C4.36931 6.17953 4.40508 5.20762 4.77503 4.34813C4.77503 4.34813 5.6125 4.07898 7.52503 5.39906C9.16131 4.93765 10.8887 4.93765 12.525 5.39906C14.4375 4.06618 15.275 4.34813 15.275 4.34813C15.645 5.20761 15.6808 6.17954 15.375 7.06516C16.0494 7.81447 16.4164 8.80122 16.4 9.82063C16.4 13.7552 14.0625 14.6267 11.8375 14.883C12.0762 15.131 12.26 15.4288 12.3764 15.7561C12.4929 16.0833 12.5393 16.4325 12.5125 16.7798C12.5125 18.1512 12.5 19.2533 12.5 19.5994C12.5 19.8685 12.6875 20.1889 13.1875 20.0864C15.4362 19.3101 17.3426 17.7397 18.5664 15.6556C19.7903 13.5715 20.2519 11.1092 19.8689 8.7084C19.4859 6.30759 18.2832 4.12446 16.4755 2.54873C14.6678 0.972996 12.3727 0.107223 10 0.105957Z" fill="white"/>
</svg>
