<svg width="29" height="23" viewBox="0 0 29 23" fill="none" xmlns="http://www.w3.org/2000/svg">
<path d="M18.6291 0.500001C18.9853 0.500001 19.4321 0.593501 19.791 0.681501C21.0423 0.984001 22.5259 1.35938 23.5791 2.15C24.5595 2.88563 25.3213 4.1685 25.9098 5.472C27.1335 8.18763 27.9846 11.808 28.2789 14.5608C28.4191 15.867 28.4535 17.1815 28.2019 18.0656C28.0781 18.5001 27.81 18.8274 27.6216 19.0281C27.0469 19.6373 26.3071 20.0924 25.5756 20.5063L25.2126 20.7111C24.9736 20.8441 24.7329 20.9743 24.4908 21.1016L23.773 21.4729L22.7871 21.9638L21.9938 22.3542C21.7034 22.4997 21.371 22.5377 21.0554 22.4615C20.7397 22.3853 20.4612 22.1998 20.2692 21.938C20.0771 21.6761 19.984 21.3548 20.0062 21.0308C20.0284 20.7068 20.1646 20.4012 20.3905 20.168L19.7938 18.9745C18.0778 19.496 16.2934 19.7574 14.5 19.75C12.6163 19.75 10.8191 19.475 9.20627 18.9745L8.6109 20.1653C8.83771 20.3981 8.97473 20.7037 8.99763 21.0279C9.02053 21.3521 8.92784 21.674 8.736 21.9363C8.54417 22.1987 8.26559 22.3846 7.9497 22.4611C7.6338 22.5377 7.30102 22.4998 7.0104 22.3542L6.2624 21.983C5.4319 21.5733 4.6014 21.1635 3.7929 20.7111C2.94864 20.2395 2.05352 19.7376 1.38389 19.0268C1.11667 18.7566 0.917747 18.4267 0.803645 18.0643C0.550645 17.1815 0.586394 15.8684 0.72527 14.5608C1.01952 11.808 1.87064 8.18763 3.09577 5.472C3.6829 4.1685 4.44465 2.88563 5.42502 2.15C6.47827 1.35938 7.9619 0.984001 9.21315 0.681501C9.57202 0.593501 10.0175 0.500001 10.375 0.500001C10.5728 0.49983 10.7682 0.542317 10.9481 0.624563C11.1279 0.706808 11.2879 0.826878 11.4171 0.97658C11.5463 1.12628 11.6417 1.30209 11.6968 1.49202C11.7519 1.68195 11.7653 1.88152 11.7363 2.07713C12.6513 1.94174 13.5751 1.87418 14.5 1.875C15.4501 1.875 16.3783 1.94375 17.2693 2.0785C17.24 1.88279 17.2533 1.68307 17.3083 1.49297C17.3632 1.30288 17.4586 1.12689 17.5878 0.977029C17.7171 0.827169 17.8771 0.70697 18.0571 0.624643C18.237 0.542316 18.4313 0.4998 18.6291 0.500001ZM20.4909 3.74913C20.2846 3.68313 20.2351 3.712 20.1609 3.83575L20.0756 3.98975C19.8534 4.37071 19.516 4.6713 19.112 4.84822C18.708 5.02515 18.2582 5.06928 17.8275 4.97425C16.734 4.73951 15.6185 4.62242 14.5 4.625C13.3285 4.625 12.2079 4.74875 11.1725 4.97425C10.7418 5.06928 10.2921 5.02515 9.88808 4.84822C9.48407 4.6713 9.14664 4.37071 8.9244 3.98975L8.83915 3.83713C8.76627 3.71338 8.71677 3.6845 8.5119 3.74913C8.0224 3.9045 7.49715 4.07088 7.07502 4.35C6.6804 4.64563 6.15377 5.38125 5.6024 6.60363C4.54915 8.937 3.72415 12.3841 3.46014 14.8536C3.40515 15.3748 3.37627 15.8216 3.3694 16.1901V16.5944C3.3749 16.8391 3.39277 17.033 3.41752 17.1746C3.76677 17.5156 4.19852 17.7838 4.63165 18.0299L5.5694 18.5483L6.18265 18.8714L6.68315 17.8704C6.44083 17.6446 6.28815 17.3389 6.25318 17.0096C6.21821 16.6802 6.30331 16.3493 6.49281 16.0777C6.68232 15.806 6.96351 15.6119 7.28469 15.531C7.60587 15.4501 7.94546 15.4879 8.24102 15.6374C9.91302 16.4775 12.0883 17 14.5 17C16.9104 17 19.087 16.4748 20.759 15.6388C21.042 15.497 21.3651 15.4572 21.674 15.526C21.9829 15.5949 22.2586 15.7682 22.4545 16.0166C22.6505 16.2651 22.7548 16.5736 22.7497 16.89C22.7447 17.2064 22.6307 17.5114 22.4269 17.7535L22.3169 17.8704L22.8174 18.8741C23.2271 18.6624 23.6383 18.4382 24.0508 18.21C24.587 17.913 25.1508 17.6009 25.5866 17.1746C25.6114 17.033 25.6279 16.8391 25.6348 16.5944V16.1901C25.6236 15.7431 25.5933 15.2967 25.544 14.8523C25.28 12.3841 24.455 8.937 23.4018 6.60225C22.8518 5.38125 22.3238 4.64563 21.9305 4.35C21.507 4.07088 20.9818 3.9045 20.4909 3.74913ZM10.0313 9.4375C10.6694 9.4375 11.2815 9.69102 11.7327 10.1423C12.184 10.5935 12.4375 11.2056 12.4375 11.8438C12.4375 12.4819 12.184 13.094 11.7327 13.5452C11.2815 13.9965 10.6694 14.25 10.0313 14.25C9.39309 14.25 8.78105 13.9965 8.3298 13.5452C7.87854 13.094 7.62502 12.4819 7.62502 11.8438C7.62502 11.2056 7.87854 10.5935 8.3298 10.1423C8.78105 9.69102 9.39309 9.4375 10.0313 9.4375ZM18.9688 9.4375C19.607 9.4375 20.219 9.69102 20.6702 10.1423C21.1215 10.5935 21.375 11.2056 21.375 11.8438C21.375 12.4819 21.1215 13.094 20.6702 13.5452C20.219 13.9965 19.607 14.25 18.9688 14.25C18.3306 14.25 17.7186 13.9965 17.2673 13.5452C16.816 13.094 16.5625 12.4819 16.5625 11.8438C16.5625 11.2056 16.816 10.5935 17.2673 10.1423C17.7186 9.69102 18.3306 9.4375 18.9688 9.4375Z" fill="#579EE0"/>
</svg>
