<svg width="23" height="23" viewBox="0 0 23 23" fill="none" xmlns="http://www.w3.org/2000/svg">
<path fill-rule="evenodd" clip-rule="evenodd" d="M3.08537 0C2.26708 0 1.4823 0.325064 0.903683 0.903683C0.325064 1.4823 0 2.26708 0 3.08537C0 3.90366 0.325064 4.68843 0.903683 5.26705C1.4823 5.84567 2.26708 6.17073 3.08537 6.17073C3.90366 6.17073 4.68843 5.84567 5.26705 5.26705C5.84567 4.68843 6.17073 3.90366 6.17073 3.08537C6.17073 2.26708 5.84567 1.4823 5.26705 0.903683C4.68843 0.325064 3.90366 0 3.08537 0ZM1.68293 3.08537C1.68293 2.71342 1.83068 2.3567 2.09369 2.09369C2.3567 1.83068 2.71342 1.68293 3.08537 1.68293C3.45732 1.68293 3.81403 1.83068 4.07704 2.09369C4.34005 2.3567 4.4878 2.71342 4.4878 3.08537C4.4878 3.45732 4.34005 3.81403 4.07704 4.07704C3.81403 4.34005 3.45732 4.4878 3.08537 4.4878C2.71342 4.4878 2.3567 4.34005 2.09369 4.07704C1.83068 3.81403 1.68293 3.45732 1.68293 3.08537ZM0 7.57317C0 7.35 0.0886538 7.13597 0.246459 6.97817C0.404264 6.82036 0.618293 6.73171 0.841463 6.73171H5.32927C5.55244 6.73171 5.76647 6.82036 5.92427 6.97817C6.08208 7.13597 6.17073 7.35 6.17073 7.57317V22.1585C6.17073 22.3817 6.08208 22.5957 5.92427 22.7535C5.76647 22.9113 5.55244 23 5.32927 23H0.841463C0.618293 23 0.404264 22.9113 0.246459 22.7535C0.0886538 22.5957 0 22.3817 0 22.1585V7.57317ZM1.68293 8.41463V21.3171H4.4878V8.41463H1.68293ZM7.85366 7.57317C7.85366 7.35 7.94231 7.13597 8.10012 6.97817C8.25792 6.82036 8.47195 6.73171 8.69512 6.73171H13.1829C13.4061 6.73171 13.6201 6.82036 13.7779 6.97817C13.9357 7.13597 14.0244 7.35 14.0244 7.57317V8.0601L14.5124 7.85029C15.3539 7.49068 16.2466 7.26542 17.158 7.18273C20.2714 6.9 23 9.34585 23 12.4873V22.1585C23 22.3817 22.9113 22.5957 22.7535 22.7535C22.5957 22.9113 22.3817 23 22.1585 23H17.6707C17.4476 23 17.2335 22.9113 17.0757 22.7535C16.9179 22.5957 16.8293 22.3817 16.8293 22.1585V14.3049C16.8293 13.9329 16.6815 13.5762 16.4185 13.3132C16.1555 13.0502 15.7988 12.9024 15.4268 12.9024C15.0549 12.9024 14.6982 13.0502 14.4352 13.3132C14.1721 13.5762 14.0244 13.9329 14.0244 14.3049V22.1585C14.0244 22.3817 13.9357 22.5957 13.7779 22.7535C13.6201 22.9113 13.4061 23 13.1829 23H8.69512C8.47195 23 8.25792 22.9113 8.10012 22.7535C7.94231 22.5957 7.85366 22.3817 7.85366 22.1585V7.57317ZM9.53659 8.41463V21.3171H12.3415V14.3049C12.3415 13.4866 12.6665 12.7018 13.2451 12.1232C13.8238 11.5446 14.6085 11.2195 15.4268 11.2195C16.2451 11.2195 17.0299 11.5446 17.6085 12.1232C18.1871 12.7018 18.5122 13.4866 18.5122 14.3049V21.3171H21.3171V12.4873C21.3171 10.3511 19.4535 8.66371 17.3117 8.85893C16.5759 8.92587 15.8551 9.10758 15.1755 9.39746L13.515 10.1099C13.3869 10.1649 13.2472 10.1872 13.1084 10.1749C12.9695 10.1625 12.8359 10.1159 12.7196 10.0392C12.6032 9.9624 12.5078 9.85794 12.4418 9.73517C12.3758 9.61239 12.3413 9.47515 12.3415 9.33576V8.41463H9.53659Z" fill="#5AA3E8"/>
</svg>
